<svg width="200" height="58" viewBox="0 0 200 58" fill="none" xmlns="http://www.w3.org/2000/svg">
<path d="M192.593 57.8573H7.40741C3.33519 57.8573 0 54.601 0 50.6251V7.23216C0 3.25628 3.33519 1.07077e-06 7.40741 1.07077e-06H192.593C196.665 1.07077e-06 200 3.25628 200 7.23216V50.6251C200 54.601 196.665 57.8573 192.593 57.8573Z" fill="black"/>
<path d="M45.299 28.5441C45.2558 23.8707 49.2236 21.5971 49.4051 21.4913C47.158 18.2969 43.675 17.8605 42.451 17.8257C39.5257 17.5255 36.6882 19.5323 35.1981 19.5323C33.6782 19.5323 31.3834 17.8547 28.9103 17.904C25.7277 17.9518 22.7504 19.7484 21.1174 22.5382C17.7475 28.2265 20.2608 36.5858 23.4895 41.1837C25.1046 43.4356 26.9918 45.9499 29.462 45.8614C31.8787 45.7643 32.7814 44.3592 35.6977 44.3592C38.5873 44.3592 39.435 45.8614 41.9543 45.8049C44.5479 45.7643 46.1809 43.5429 47.7394 41.2707C49.6058 38.6897 50.3554 36.1479 50.3851 36.0174C50.3242 35.9971 45.3481 34.1454 45.299 28.5441Z" fill="white"/>
<path d="M40.54 14.801C41.8398 13.2161 42.7291 11.06 42.4823 8.87193C40.601 8.95313 38.2483 10.1407 36.8934 11.6907C35.6948 13.0566 34.624 15.2954 34.9006 17.4008C37.0139 17.5545 39.1837 16.3612 40.54 14.801Z" fill="white"/>
<path d="M80.2729 45.5381H76.8955L75.0455 39.87H68.6149L66.8526 45.5381H63.5645L69.9355 26.2415H73.8706L80.2729 45.5381ZM74.4878 37.492L72.8147 32.4533C72.6377 31.9385 72.3061 30.7263 71.8168 28.8181H71.7573C71.5625 29.6388 71.2487 30.851 70.8174 32.4533L69.1741 37.492H74.4878Z" fill="white"/>
<path d="M96.6571 38.4099C96.6571 40.7763 96.0012 42.6468 94.6895 44.02C93.5147 45.2423 92.0558 45.8528 90.3143 45.8528C88.4345 45.8528 87.0841 45.1945 86.2617 43.8779H86.2022V51.2076H83.0315V36.2045C83.0315 34.7168 82.9914 33.1899 82.9141 31.6239H85.7025L85.8795 33.8294H85.939C86.9964 32.1677 88.601 31.3383 90.7545 31.3383C92.438 31.3383 93.8433 31.9864 94.9677 33.2842C96.0949 34.5834 96.6571 36.2915 96.6571 38.4099ZM93.4269 38.523C93.4269 37.1687 93.1146 36.0522 92.487 35.1735C91.8014 34.2571 90.8809 33.7989 89.7268 33.7989C88.9446 33.7989 88.2337 34.0541 87.5987 34.5573C86.9622 35.0648 86.5458 35.7274 86.3509 36.5481C86.2528 36.9309 86.2037 37.2441 86.2037 37.4906V39.8106C86.2037 40.8227 86.522 41.6768 87.1585 42.3742C87.795 43.0717 88.6219 43.4197 89.6391 43.4197C90.8333 43.4197 91.7628 42.9702 92.4275 42.0741C93.0938 41.1765 93.4269 39.9933 93.4269 38.523Z" fill="white"/>
<path d="M113.071 38.4099C113.071 40.7763 112.415 42.6468 111.102 44.02C109.929 45.2423 108.47 45.8528 106.728 45.8528C104.849 45.8528 103.498 45.1945 102.677 43.8779H102.618V51.2076H99.4471V36.2045C99.4471 34.7168 99.4069 33.1899 99.3296 31.6239H102.118L102.295 33.8294H102.355C103.41 32.1677 105.015 31.3383 107.17 31.3383C108.852 31.3383 110.257 31.9864 111.385 33.2842C112.507 34.5834 113.071 36.2915 113.071 38.4099ZM109.841 38.523C109.841 37.1687 109.527 36.0522 108.9 35.1735C108.214 34.2571 107.296 33.7989 106.141 33.7989C105.357 33.7989 104.648 34.0541 104.011 34.5573C103.375 35.0648 102.96 35.7274 102.765 36.5481C102.668 36.9309 102.618 37.2441 102.618 37.4906V39.8106C102.618 40.8227 102.936 41.6768 103.57 42.3742C104.206 43.0702 105.033 43.4197 106.053 43.4197C107.247 43.4197 108.177 42.9702 108.842 42.0741C109.508 41.1765 109.841 39.9933 109.841 38.523Z" fill="white"/>
<path d="M131.423 40.1267C131.423 41.7681 130.838 43.1035 129.665 44.1345C128.375 45.2611 126.58 45.8237 124.274 45.8237C122.144 45.8237 120.437 45.4235 119.145 44.6217L119.879 42.045C121.271 42.8657 122.799 43.2775 124.463 43.2775C125.657 43.2775 126.586 43.0136 127.254 42.4887C127.919 41.9638 128.251 41.2591 128.251 40.3804C128.251 39.5974 127.977 38.9377 127.428 38.4026C126.882 37.8676 125.971 37.3702 124.698 36.9106C121.233 35.6505 119.501 33.8047 119.501 31.3774C119.501 29.7911 120.108 28.4904 121.323 27.4783C122.534 26.4648 124.149 25.9587 126.168 25.9587C127.969 25.9587 129.466 26.2647 130.66 26.8751L129.867 29.3952C128.752 28.8036 127.491 28.5078 126.079 28.5078C124.964 28.5078 124.092 28.7761 123.468 29.3097C122.94 29.7867 122.675 30.3682 122.675 31.0569C122.675 31.8196 122.977 32.4504 123.584 32.9463C124.112 33.4045 125.071 33.9004 126.463 34.4354C128.166 35.1039 129.416 35.8854 130.221 36.7815C131.023 37.6747 131.423 38.7927 131.423 40.1267Z" fill="white"/>
<path d="M141.906 33.9439H138.412V40.6994C138.412 42.4177 139.027 43.2761 140.262 43.2761C140.828 43.2761 141.298 43.2282 141.67 43.1325L141.758 45.4801C141.133 45.7077 140.311 45.8223 139.292 45.8223C138.04 45.8223 137.061 45.4496 136.355 44.7058C135.651 43.9605 135.297 42.7106 135.297 40.9546V33.941H133.215V31.621H135.297V29.0733L138.412 28.1569V31.621H141.906V33.9439Z" fill="white"/>
<path d="M157.674 38.4664C157.674 40.6052 157.047 42.3611 155.794 43.7343C154.481 45.148 152.738 45.8527 150.566 45.8527C148.472 45.8527 146.804 45.1756 145.561 43.8213C144.318 42.467 143.696 40.7574 143.696 38.697C143.696 36.5408 144.336 34.7747 145.619 33.4016C146.9 32.027 148.628 31.3397 150.801 31.3397C152.894 31.3397 154.579 32.0168 155.851 33.3726C157.068 34.6877 157.674 36.3857 157.674 38.4664ZM154.385 38.5665C154.385 37.2832 154.104 36.1827 153.534 35.2648C152.869 34.1541 151.919 33.6002 150.688 33.6002C149.413 33.6002 148.445 34.1556 147.78 35.2648C147.21 36.1841 146.929 37.3021 146.929 38.6245C146.929 39.9077 147.21 41.0083 147.78 41.9247C148.466 43.0354 149.423 43.5893 150.659 43.5893C151.87 43.5893 152.82 43.0238 153.506 41.8957C154.09 40.9604 154.385 39.8483 154.385 38.5665Z" fill="white"/>
<path d="M167.981 34.3427C167.667 34.2861 167.333 34.2571 166.982 34.2571C165.866 34.2571 165.004 34.6675 164.397 35.4896C163.869 36.2146 163.604 37.131 163.604 38.2374V45.5381H160.435L160.465 36.0058C160.465 34.4021 160.425 32.942 160.346 31.6254H163.107L163.223 34.2876H163.311C163.646 33.3726 164.174 32.636 164.896 32.0836C165.603 31.5862 166.366 31.3383 167.188 31.3383C167.481 31.3383 167.746 31.3586 167.981 31.3948V34.3427Z" fill="white"/>
<path d="M182.161 37.9227C182.161 38.4766 182.124 38.9435 182.045 39.3248H172.533C172.57 40.6994 173.03 41.7507 173.913 42.4757C174.715 43.1238 175.751 43.4486 177.024 43.4486C178.433 43.4486 179.718 43.2297 180.873 42.7903L181.37 44.9363C180.02 45.5105 178.425 45.7962 176.586 45.7962C174.373 45.7962 172.636 45.1611 171.372 43.8923C170.111 42.6236 169.479 40.9198 169.479 38.7825C169.479 36.6844 170.066 34.9371 171.242 33.5437C172.474 32.056 174.138 31.3121 176.232 31.3121C178.289 31.3121 179.846 32.056 180.903 33.5437C181.74 34.7254 182.161 36.187 182.161 37.9227ZM179.138 37.1208C179.159 36.2044 178.952 35.4127 178.522 34.7443C177.973 33.8844 177.13 33.4552 175.995 33.4552C174.959 33.4552 174.116 33.8743 173.472 34.7153C172.944 35.3837 172.63 36.1856 172.533 37.1194H179.138V37.1208Z" fill="white"/>
<path d="M73.4394 14.3704C73.4394 16.077 72.9144 17.3617 71.8659 18.2245C70.8948 19.0205 69.5147 19.4193 67.7271 19.4193C66.8408 19.4193 66.0823 19.3816 65.4473 19.3062V9.98124C66.2756 9.85074 67.1679 9.78404 68.1316 9.78404C69.8344 9.78404 71.1179 10.1451 71.9834 10.8672C72.9531 11.6835 73.4394 12.8508 73.4394 14.3704ZM71.796 14.4124C71.796 13.3061 71.4956 12.4578 70.8948 11.8662C70.294 11.2761 69.4166 10.9803 68.261 10.9803C67.7702 10.9803 67.3523 11.0122 67.0058 11.0789V18.1679C67.1977 18.1969 67.5487 18.21 68.0588 18.21C69.2515 18.21 70.172 17.8866 70.8205 17.2399C71.4689 16.5932 71.796 15.6507 71.796 14.4124Z" fill="white"/>
<path d="M82.1529 15.861C82.1529 16.9122 81.8451 17.7735 81.2294 18.4492C80.584 19.1438 79.7288 19.4903 78.661 19.4903C77.6319 19.4903 76.8125 19.1583 76.2012 18.4913C75.5915 17.8257 75.2866 16.9862 75.2866 15.9741C75.2866 14.9156 75.6004 14.047 76.231 13.3728C76.8615 12.6985 77.7092 12.3607 78.777 12.3607C79.8062 12.3607 80.633 12.6927 81.2591 13.3583C81.854 14.005 82.1529 14.8402 82.1529 15.861ZM80.5364 15.9103C80.5364 15.2795 80.3966 14.7387 80.1185 14.2877C79.7913 13.7425 79.3258 13.4699 78.7205 13.4699C78.0944 13.4699 77.6185 13.7425 77.2913 14.2877C77.0118 14.7387 76.8734 15.2882 76.8734 15.9378C76.8734 16.5686 77.0132 17.1094 77.2913 17.5604C77.6289 18.1056 78.0989 18.3782 78.7056 18.3782C79.3005 18.3782 79.7675 18.1012 80.1036 17.5459C80.3921 17.0862 80.5364 16.541 80.5364 15.9103Z" fill="white"/>
<path d="M93.8366 12.4999L91.643 19.3352H90.2153L89.3067 16.367C89.0762 15.6261 88.8888 14.8895 88.743 14.1587H88.7148C88.5794 14.9098 88.3921 15.6449 88.1511 16.367L87.186 19.3352H85.7419L83.6792 12.4999H85.2809L86.0736 15.7493C86.2654 16.5178 86.423 17.2501 86.5495 17.9432H86.5777C86.6937 17.3719 86.8856 16.644 87.1562 15.7638L88.1511 12.5013H89.4212L90.3745 15.6942C90.605 16.4729 90.7924 17.2225 90.9366 17.9446H90.9798C91.0853 17.2414 91.2445 16.4917 91.4557 15.6942L92.3063 12.5013H93.8366V12.4999Z" fill="white"/>
<path d="M101.916 19.3352H100.357V15.4202C100.357 14.2138 99.8875 13.6106 98.9446 13.6106C98.4821 13.6106 98.1088 13.7759 97.8188 14.1079C97.5318 14.44 97.3861 14.8315 97.3861 15.2795V19.3337H95.8275V14.453C95.8275 13.8527 95.8082 13.2017 95.771 12.497H97.1407L97.2136 13.5656H97.2567C97.4381 13.2336 97.7088 12.9595 98.0642 12.7406C98.4866 12.4854 98.9595 12.3563 99.477 12.3563C100.131 12.3563 100.676 12.5622 101.108 12.9755C101.647 13.4815 101.916 14.237 101.916 15.2404V19.3352Z" fill="white"/>
<path d="M106.214 19.3352H104.657V9.36352H106.214V19.3352Z" fill="white"/>
<path d="M115.39 15.861C115.39 16.9122 115.082 17.7735 114.466 18.4492C113.821 19.1438 112.964 19.4903 111.898 19.4903C110.867 19.4903 110.048 19.1583 109.438 18.4913C108.828 17.8257 108.523 16.9862 108.523 15.9741C108.523 14.9156 108.837 14.047 109.468 13.3728C110.098 12.6985 110.946 12.3607 112.012 12.3607C113.043 12.3607 113.868 12.6927 114.496 13.3583C115.091 14.005 115.39 14.8402 115.39 15.861ZM113.772 15.9103C113.772 15.2795 113.632 14.7387 113.354 14.2877C113.028 13.7425 112.561 13.4699 111.957 13.4699C111.33 13.4699 110.854 13.7425 110.528 14.2877C110.249 14.7387 110.11 15.2882 110.11 15.9378C110.11 16.5686 110.25 17.1094 110.528 17.5604C110.866 18.1056 111.336 18.3782 111.942 18.3782C112.537 18.3782 113.003 18.1012 113.339 17.5459C113.629 17.0862 113.772 16.541 113.772 15.9103Z" fill="white"/>
<path d="M122.933 19.3352H121.534L121.418 18.5478H121.375C120.896 19.1757 120.213 19.4903 119.327 19.4903C118.665 19.4903 118.13 19.283 117.727 18.8712C117.361 18.4971 117.178 18.0316 117.178 17.4792C117.178 16.644 117.535 16.0074 118.253 15.5666C118.97 15.1258 119.978 14.9098 121.276 14.9199V14.7923C121.276 13.8919 120.792 13.4424 119.82 13.4424C119.129 13.4424 118.519 13.612 117.993 13.9484L117.676 12.9508C118.327 12.5579 119.132 12.3607 120.081 12.3607C121.913 12.3607 122.832 13.3032 122.832 15.1882V17.7054C122.832 18.3883 122.866 18.9321 122.933 19.3352ZM121.315 16.9862V15.932C119.596 15.903 118.736 16.3627 118.736 17.3095C118.736 17.6662 118.834 17.933 119.035 18.1114C119.236 18.2897 119.492 18.3782 119.797 18.3782C120.139 18.3782 120.458 18.2723 120.75 18.0621C121.043 17.8504 121.223 17.5821 121.29 17.253C121.306 17.179 121.315 17.0891 121.315 16.9862Z" fill="white"/>
<path d="M131.789 19.3352H130.406L130.333 18.2375H130.29C129.848 19.0727 129.096 19.4903 128.038 19.4903C127.194 19.4903 126.49 19.167 125.932 18.5203C125.375 17.8736 125.097 17.034 125.097 16.0031C125.097 14.8967 125.399 14.0006 126.005 13.3162C126.593 12.6782 127.313 12.3592 128.169 12.3592C129.111 12.3592 129.769 12.6681 130.144 13.2872H130.174V9.36352H131.734V17.4937C131.734 18.1592 131.752 18.7726 131.789 19.3352ZM130.174 16.4526V15.3129C130.174 15.1157 130.159 14.9562 130.131 14.8344C130.043 14.469 129.854 14.1616 129.567 13.9136C129.277 13.6657 128.928 13.541 128.525 13.541C127.943 13.541 127.488 13.7657 127.153 14.2167C126.822 14.6676 126.654 15.2433 126.654 15.9465C126.654 16.6222 126.813 17.1703 127.133 17.5923C127.47 18.0418 127.925 18.2665 128.495 18.2665C129.006 18.2665 129.415 18.0795 129.726 17.7039C130.027 17.3574 130.174 16.9398 130.174 16.4526Z" fill="white"/>
<path d="M145.119 15.861C145.119 16.9122 144.811 17.7735 144.195 18.4492C143.55 19.1438 142.696 19.4903 141.627 19.4903C140.599 19.4903 139.78 19.1583 139.167 18.4913C138.557 17.8257 138.252 16.9862 138.252 15.9741C138.252 14.9156 138.566 14.047 139.197 13.3728C139.827 12.6985 140.675 12.3607 141.744 12.3607C142.772 12.3607 143.6 12.6927 144.225 13.3583C144.82 14.005 145.119 14.8402 145.119 15.861ZM143.504 15.9103C143.504 15.2795 143.364 14.7387 143.086 14.2877C142.757 13.7425 142.293 13.4699 141.686 13.4699C141.062 13.4699 140.586 13.7425 140.257 14.2877C139.978 14.7387 139.839 15.2882 139.839 15.9378C139.839 16.5686 139.979 17.1094 140.257 17.5604C140.595 18.1056 141.065 18.3782 141.671 18.3782C142.266 18.3782 142.735 18.1012 143.071 17.5459C143.358 17.0862 143.504 16.541 143.504 15.9103Z" fill="white"/>
<path d="M153.499 19.3352H151.942V15.4202C151.942 14.2138 151.472 13.6106 150.528 13.6106C150.065 13.6106 149.692 13.7759 149.403 14.1079C149.115 14.44 148.971 14.8315 148.971 15.2795V19.3337H147.41V14.453C147.41 13.8527 147.393 13.2017 147.355 12.497H148.724L148.797 13.5656H148.84C149.023 13.2336 149.293 12.9595 149.647 12.7406C150.071 12.4854 150.542 12.3563 151.062 12.3563C151.714 12.3563 152.259 12.5622 152.691 12.9755C153.231 13.4815 153.499 14.237 153.499 15.2404V19.3352Z" fill="white"/>
<path d="M163.988 13.6381H162.272V16.9586C162.272 17.8025 162.577 18.2245 163.18 18.2245C163.46 18.2245 163.692 18.2013 163.875 18.1534L163.915 19.3062C163.607 19.4193 163.203 19.4758 162.705 19.4758C162.089 19.4758 161.61 19.2931 161.263 18.9277C160.915 18.5623 160.743 17.9475 160.743 17.0848V13.6381H159.718V12.4999H160.743V11.2471L162.27 10.7976V12.4984H163.986V13.6381H163.988Z" fill="white"/>
<path d="M172.239 19.3352H170.679V15.4492C170.679 14.2239 170.209 13.6106 169.268 13.6106C168.545 13.6106 168.051 13.9658 167.78 14.6763C167.734 14.8257 167.707 15.0084 167.707 15.223V19.3337H166.15V9.36352H167.707V13.483H167.737C168.228 12.7333 168.931 12.3592 169.843 12.3592C170.489 12.3592 171.022 12.5651 171.446 12.9784C171.974 13.4931 172.239 14.2587 172.239 15.2708V19.3352Z" fill="white"/>
<path d="M180.75 15.5942C180.75 15.8668 180.729 16.0959 180.692 16.2829H176.018C176.038 16.9586 176.262 17.4734 176.694 17.8301C177.09 18.1491 177.6 18.3086 178.225 18.3086C178.916 18.3086 179.547 18.2013 180.115 17.9852L180.359 19.0408C179.694 19.3221 178.912 19.4628 178.006 19.4628C176.92 19.4628 176.065 19.151 175.447 18.5275C174.825 17.904 174.517 17.0674 174.517 16.0176C174.517 14.9866 174.804 14.1282 175.383 13.4438C175.986 12.713 176.803 12.3476 177.834 12.3476C178.842 12.3476 179.608 12.713 180.125 13.4438C180.543 14.0238 180.75 14.7416 180.75 15.5942ZM179.263 15.2012C179.275 14.7503 179.172 14.3617 178.961 14.034C178.69 13.612 178.278 13.4003 177.72 13.4003C177.212 13.4003 176.797 13.6062 176.48 14.0195C176.221 14.3486 176.068 14.7416 176.018 15.2012H179.263Z" fill="white"/>
</svg>
