<svg width="200" height="58" viewBox="0 0 200 58" fill="none" xmlns="http://www.w3.org/2000/svg">
<path d="M192.593 57.8573H7.40741C3.33519 57.8573 0 54.601 0 50.6251V7.23217C0 3.25629 3.33519 3.976e-06 7.40741 3.976e-06H192.593C196.665 3.976e-06 200 3.25629 200 7.23217V50.6251C200 54.601 196.665 57.8573 192.593 57.8573Z" fill="black"/>
<path d="M70.2484 14.8169C70.2484 16.0247 69.878 16.992 69.1484 17.7134C68.3095 18.5686 67.2169 18.9989 65.878 18.9989C64.5984 18.9989 63.5058 18.5613 62.6095 17.6989C61.7113 16.8238 61.2632 15.7498 61.2632 14.4643C61.2632 13.1788 61.7113 12.1048 62.6095 11.237C63.5058 10.3673 64.5984 9.92976 65.878 9.92976C66.515 9.92976 67.1224 10.0581 67.7021 10.2968C68.2798 10.5373 68.7502 10.8627 69.091 11.2641L68.3169 12.0271C67.7224 11.3418 66.9132 11.0037 65.878 11.0037C64.9447 11.0037 64.1354 11.322 63.4484 11.9638C62.7687 12.6075 62.428 13.441 62.428 14.4643C62.428 15.4877 62.7687 16.3284 63.4484 16.9721C64.1354 17.6067 64.9447 17.9321 65.878 17.9321C66.8687 17.9321 67.7021 17.6067 68.3595 16.9648C68.7928 16.54 69.0391 15.9542 69.1039 15.2056H65.878V14.1606H70.1817C70.2336 14.3866 70.2484 14.6054 70.2484 14.8169Z" fill="white"/>
<path d="M77.0757 11.1936H73.0331V13.9418H76.6776V14.9868H73.0331V17.7351H77.0757V18.8H71.8887V10.1286H77.0757V11.1936Z" fill="white"/>
<path d="M81.8946 18.8H80.7501V11.1936H78.2705V10.1286H84.3761V11.1936H81.8946V18.8Z" fill="white"/>
<path d="M88.7949 18.8V10.1286H89.9375V18.8H88.7949Z" fill="white"/>
<path d="M95.0015 18.8H93.8663V11.1936H91.3774V10.1286H97.4904V11.1936H95.0015V18.8Z" fill="white"/>
<path d="M109.05 17.6844C108.174 18.5613 107.089 18.9989 105.794 18.9989C104.493 18.9989 103.407 18.5613 102.531 17.6844C101.657 16.8094 101.222 15.7354 101.222 14.4643C101.222 13.1933 101.657 12.1193 102.531 11.2442C103.407 10.3673 104.493 9.92976 105.794 9.92976C107.081 9.92976 108.167 10.3673 109.043 11.2514C109.924 12.1338 110.359 13.2005 110.359 14.4643C110.359 15.7354 109.924 16.8094 109.05 17.6844ZM103.378 16.9576C104.037 17.6067 104.839 17.9321 105.794 17.9321C106.743 17.9321 107.552 17.6067 108.204 16.9576C108.861 16.3085 109.194 15.475 109.194 14.4643C109.194 13.4536 108.861 12.6201 108.204 11.971C107.552 11.322 106.743 10.9965 105.794 10.9965C104.839 10.9965 104.037 11.322 103.378 11.971C102.72 12.6201 102.387 13.4536 102.387 14.4643C102.387 15.475 102.72 16.3085 103.378 16.9576Z" fill="white"/>
<path d="M111.965 18.8V10.1286H113.354L117.672 16.8726H117.722L117.672 15.2056V10.1286H118.815V18.8H117.622L113.1 11.7233H113.05L113.1 13.3976V18.8H111.965Z" fill="white"/>
<path d="M100.941 31.4636C97.4614 31.4636 94.6188 34.0491 94.6188 37.6163C94.6188 41.1547 97.4614 43.7673 100.941 43.7673C104.428 43.7673 107.271 41.1547 107.271 37.6163C107.271 34.0491 104.428 31.4636 100.941 31.4636ZM100.941 41.3445C99.0318 41.3445 97.3892 39.8059 97.3892 37.6163C97.3892 35.3979 99.0318 33.8863 100.941 33.8863C102.85 33.8863 104.5 35.3979 104.5 37.6163C104.5 39.8059 102.85 41.3445 100.941 41.3445ZM87.1466 31.4636C83.6595 31.4636 80.8244 34.0491 80.8244 37.6163C80.8244 41.1547 83.6595 43.7673 87.1466 43.7673C90.6318 43.7673 93.4688 41.1547 93.4688 37.6163C93.4688 34.0491 90.6318 31.4636 87.1466 31.4636ZM87.1466 41.3445C85.2355 41.3445 83.5873 39.8059 83.5873 37.6163C83.5873 35.3979 85.2355 33.8863 87.1466 33.8863C89.0558 33.8863 90.6984 35.3979 90.6984 37.6163C90.6984 39.8059 89.0558 41.3445 87.1466 41.3445ZM70.7318 33.3493V35.9638H77.1262C76.9392 37.4247 76.4392 38.4986 75.6725 39.2472C74.7392 40.1512 73.2855 41.1547 70.7318 41.1547C66.7966 41.1547 63.7151 38.0539 63.7151 34.2118C63.7151 30.3697 66.7966 27.2689 70.7318 27.2689C72.8595 27.2689 74.4077 28.0807 75.5503 29.133L77.4373 27.2906C75.8392 25.8008 73.7132 24.6563 70.7318 24.6563C65.3355 24.6563 60.8003 28.9432 60.8003 34.2118C60.8003 39.4804 65.3355 43.7673 70.7318 43.7673C73.6484 43.7673 75.8392 42.8343 77.5614 41.0841C79.3262 39.3611 79.8762 36.9383 79.8762 34.982C79.8762 34.3745 79.8244 33.8158 79.7318 33.3493H70.7318ZM137.854 35.3762C137.334 34.0002 135.728 31.4636 132.458 31.4636C129.217 31.4636 126.519 33.9568 126.519 37.6163C126.519 41.0624 129.189 43.7673 132.769 43.7673C135.663 43.7673 137.334 42.0442 138.021 41.0407L135.872 39.6431C135.156 40.6665 134.18 41.3445 132.769 41.3445C131.367 41.3445 130.361 40.7171 129.717 39.4804L138.145 36.0759L137.854 35.3762ZM129.261 37.4247C129.189 35.0525 131.148 33.8375 132.552 33.8375C133.652 33.8375 134.585 34.3745 134.897 35.1429L129.261 37.4247ZM122.411 43.393H125.182V25.3126H122.411V43.393ZM117.874 32.8341H117.782C117.16 32.1145 115.973 31.4636 114.469 31.4636C111.313 31.4636 108.428 34.1684 108.428 37.6362C108.428 41.0841 111.313 43.7673 114.469 43.7673C115.973 43.7673 117.16 43.111 117.782 42.3697H117.874V43.252C117.874 45.6042 116.587 46.8681 114.511 46.8681C112.819 46.8681 111.769 45.6748 111.335 44.6713L108.926 45.6531C109.621 47.2839 111.46 49.2908 114.511 49.2908C117.76 49.2908 120.5 47.4249 120.5 42.8849V31.8378H117.874V32.8341ZM114.706 41.3445C112.797 41.3445 111.198 39.7842 111.198 37.6362C111.198 35.4684 112.797 33.8863 114.706 33.8863C116.587 33.8863 118.071 35.4684 118.071 37.6362C118.071 39.7842 116.587 41.3445 114.706 41.3445ZM150.824 25.3126H144.198V43.393H146.961V36.5423H150.824C153.893 36.5423 156.902 34.3745 156.902 30.9266C156.902 27.4804 153.885 25.3126 150.824 25.3126ZM150.897 34.0274H146.961V27.8276H150.897C152.96 27.8276 154.137 29.5 154.137 30.9266C154.137 32.326 152.96 34.0274 150.897 34.0274ZM167.976 31.4292C165.98 31.4292 163.904 32.2898 163.05 34.1973L165.502 35.2008C166.03 34.1973 167 33.8719 168.026 33.8719C169.46 33.8719 170.913 34.7126 170.935 36.197V36.3869C170.435 36.1048 169.365 35.6871 168.048 35.6871C165.408 35.6871 162.717 37.1065 162.717 39.7552C162.717 42.178 164.88 43.7383 167.311 43.7383C169.171 43.7383 170.197 42.9193 170.841 41.9665H170.935V43.3641H173.604V36.4284C173.604 33.2228 171.152 31.4292 167.976 31.4292ZM167.643 41.3373C166.739 41.3373 165.48 40.8997 165.48 39.8059C165.48 38.4064 167.05 37.8694 168.41 37.8694C169.626 37.8694 170.197 38.1316 170.935 38.4769C170.719 40.1512 169.243 41.3373 167.643 41.3373ZM183.326 31.8252L180.15 39.663H180.056L176.772 31.8252H173.793L178.726 42.7783L175.911 48.8732H178.798L186.4 31.8252H183.326ZM158.421 43.393H161.191V25.3126H158.421V43.393Z" fill="white"/>
<path d="M15.459 10.9043C15.0238 11.3491 14.772 12.0415 14.772 12.9383V44.9262C14.772 45.823 15.0238 46.5155 15.459 46.9602L15.5664 47.0579L33.9257 29.1402V28.7171L15.5664 10.7994L15.459 10.9043Z" fill="url(#paint0_linear_1659_2067)"/>
<path d="M40.0387 35.1157L33.9258 29.1402V28.7171L40.0462 22.7415L40.1832 22.8193L47.4313 26.8458C49.4999 27.9884 49.4999 29.8688 47.4313 31.0187L40.1832 35.038L40.0387 35.1157Z" fill="url(#paint1_linear_1659_2067)"/>
<path d="M40.1835 35.038L33.9261 28.9287L15.4595 46.9602C16.1465 47.6654 17.2669 47.7504 18.541 47.0452L40.1835 35.038Z" fill="url(#paint2_linear_1659_2067)"/>
<path d="M40.1835 22.8193L18.541 10.8121C17.2669 10.1142 16.1465 10.1992 15.4595 10.9043L33.9261 28.9287L40.1835 22.8193Z" fill="url(#paint3_linear_1659_2067)"/>
<defs>
<linearGradient id="paint0_linear_1659_2067" x1="32.2956" y1="45.2593" x2="8.02794" y2="20.4036" gradientUnits="userSpaceOnUse">
<stop stop-color="#00A0FF"/>
<stop offset="0.0066" stop-color="#00A1FF"/>
<stop offset="0.2601" stop-color="#00BEFF"/>
<stop offset="0.5122" stop-color="#00D2FF"/>
<stop offset="0.7604" stop-color="#00DFFF"/>
<stop offset="1" stop-color="#00E3FF"/>
</linearGradient>
<linearGradient id="paint1_linear_1659_2067" x1="50.1249" y1="28.9266" x2="14.2776" y2="28.9266" gradientUnits="userSpaceOnUse">
<stop stop-color="#FFE000"/>
<stop offset="0.4087" stop-color="#FFBD00"/>
<stop offset="0.7754" stop-color="#FFA500"/>
<stop offset="1" stop-color="#FF9C00"/>
</linearGradient>
<linearGradient id="paint2_linear_1659_2067" x1="36.781" y1="25.6075" x2="3.87204" y2="-8.09883" gradientUnits="userSpaceOnUse">
<stop stop-color="#FF3A44"/>
<stop offset="1" stop-color="#C31162"/>
</linearGradient>
<linearGradient id="paint3_linear_1659_2067" x1="10.811" y1="57.6025" x2="25.5063" y2="42.5512" gradientUnits="userSpaceOnUse">
<stop stop-color="#32A071"/>
<stop offset="0.0685" stop-color="#2DA771"/>
<stop offset="0.4762" stop-color="#15CF74"/>
<stop offset="0.8009" stop-color="#06E775"/>
<stop offset="1" stop-color="#00F076"/>
</linearGradient>
</defs>
</svg>
