<svg width="100" height="26" viewBox="0 0 100 26" fill="none" xmlns="http://www.w3.org/2000/svg">
<path d="M50.2105 5.41671V20.5833C50.2098 20.6406 50.1865 20.6953 50.1457 20.7357C50.1048 20.7762 50.0496 20.7993 49.9919 20.8H48.4001C48.0348 20.8003 47.6752 20.7097 47.3543 20.5366C47.0334 20.3635 46.7615 20.1134 46.5635 19.8091L39.3393 8.7447L39.5871 14.2711V20.5833C39.5863 20.6406 39.5631 20.6953 39.5222 20.7357C39.4814 20.7762 39.4262 20.7993 39.3684 20.8H37.2636C37.2058 20.7993 37.1506 20.7762 37.1098 20.7357C37.069 20.6953 37.0457 20.6406 37.0449 20.5833V5.41671C37.0457 5.35948 37.069 5.3048 37.1098 5.26433C37.1506 5.22386 37.2058 5.20079 37.2636 5.20004H38.8466C39.2115 5.20024 39.5706 5.2907 39.8914 5.46323C40.2121 5.63575 40.4843 5.88489 40.6832 6.18804L47.9074 17.2351L47.6829 11.7289V5.41671C47.6829 5.35925 47.706 5.30414 47.747 5.2635C47.788 5.22287 47.8436 5.20004 47.9016 5.20004H50.0065C50.0616 5.20437 50.1132 5.22901 50.151 5.26911C50.1887 5.30921 50.21 5.36186 50.2105 5.41671Z" fill="white"/>
<path d="M71.7222 20.8H69.4949C69.4601 20.7997 69.4259 20.7911 69.3951 20.7751C69.3643 20.759 69.3378 20.7359 69.3178 20.7076C69.2979 20.6794 69.285 20.6468 69.2803 20.6126C69.2756 20.5784 69.2792 20.5436 69.2908 20.5111L75.1914 5.40805C75.2167 5.34481 75.2611 5.29087 75.3185 5.25362C75.3759 5.21638 75.4435 5.19767 75.5121 5.20005H78.3021C78.3682 5.20061 78.4327 5.2207 78.4872 5.25776C78.5417 5.29481 78.5838 5.34714 78.6082 5.40805L84.4913 20.5111C84.5029 20.5436 84.5065 20.5784 84.5018 20.6126C84.4971 20.6468 84.4843 20.6794 84.4643 20.7076C84.4444 20.7359 84.4179 20.759 84.3871 20.7751C84.3563 20.7911 84.3221 20.7997 84.2873 20.8H82.06C82.0154 20.8002 81.9718 20.7871 81.9349 20.7623C81.8979 20.7376 81.8694 20.7024 81.853 20.6613L77.0981 8.23915C77.0828 8.19732 77.0548 8.16119 77.018 8.13565C76.9813 8.11011 76.9374 8.09641 76.8925 8.09641C76.8476 8.09641 76.8038 8.11011 76.767 8.13565C76.7303 8.16119 76.7023 8.19732 76.687 8.23915L71.9321 20.6613C71.9155 20.7029 71.8865 20.7384 71.849 20.7632C71.8115 20.7879 71.7673 20.8008 71.7222 20.8Z" fill="white"/>
<path d="M99.954 20.4505L95.5285 14.8489C98.0269 14.3809 99.4875 12.7111 99.4875 10.1487C99.4875 7.20493 97.5547 5.20004 94.135 5.20004H87.9632C87.8766 5.20004 87.7936 5.23413 87.7324 5.29481C87.6711 5.35549 87.6367 5.43779 87.6367 5.5236C87.6367 5.79675 87.691 6.06722 87.7965 6.31958C87.902 6.57193 88.0566 6.80123 88.2515 6.99438C88.4464 7.18752 88.6778 7.34073 88.9325 7.44526C89.1872 7.54979 89.4601 7.60359 89.7358 7.60359H93.8784C95.9454 7.60359 96.9366 8.65226 96.9366 10.166C96.9366 11.6798 95.9687 12.766 93.8784 12.766H87.9632C87.8764 12.7668 87.7933 12.8015 87.7322 12.8627C87.671 12.9238 87.6367 13.0064 87.6367 13.0925V20.6036C87.6367 20.661 87.6598 20.7161 87.7008 20.7568C87.7418 20.7974 87.7974 20.8202 87.8554 20.8202H89.9602C90.018 20.8195 90.0732 20.7964 90.114 20.7559C90.1548 20.7155 90.1781 20.6608 90.1789 20.6036V14.9847H92.6074L96.4468 19.9507C96.6525 20.2164 96.9174 20.4314 97.2209 20.5787C97.5243 20.7261 97.8581 20.8018 98.196 20.8H99.7936C99.8335 20.7978 99.872 20.7849 99.9049 20.7625C99.9379 20.7402 99.9641 20.7093 99.9806 20.6733C99.9971 20.6373 100.003 20.5975 99.9987 20.5582C99.994 20.5189 99.9785 20.4817 99.954 20.4505Z" fill="white"/>
<path d="M65.0657 5.20004H55.2994C55.222 5.20004 55.1479 5.23048 55.0932 5.28466C55.0385 5.33883 55.0078 5.41231 55.0078 5.48893C55.0078 6.05054 55.233 6.58915 55.6337 6.98627C56.0345 7.38338 56.578 7.60648 57.1448 7.60648H65.0657C65.0945 7.60687 65.1231 7.60153 65.1498 7.59078C65.1765 7.58003 65.2008 7.56409 65.2212 7.54389C65.2416 7.52369 65.2577 7.49965 65.2685 7.47319C65.2794 7.44672 65.2847 7.41838 65.2844 7.38982V5.41671C65.2844 5.35925 65.2613 5.30414 65.2203 5.2635C65.1793 5.22287 65.1237 5.20004 65.0657 5.20004ZM65.0657 18.3936H57.7774C57.7196 18.3928 57.6645 18.3698 57.6236 18.3293C57.5828 18.2888 57.5595 18.2341 57.5587 18.1769V14.2654C57.5587 14.2079 57.5818 14.1528 57.6228 14.1122C57.6638 14.0715 57.7194 14.0487 57.7774 14.0487H64.5147C64.5727 14.0487 64.6283 14.0259 64.6693 13.9852C64.7103 13.9446 64.7334 13.8895 64.7334 13.832V11.8445C64.7334 11.787 64.7103 11.7319 64.6693 11.6913C64.6283 11.6506 64.5727 11.6278 64.5147 11.6278H55.3343C55.2475 11.6286 55.1644 11.6633 55.1033 11.7244C55.0421 11.7856 55.0078 11.8682 55.0078 11.9542V20.462C55.0074 20.5047 55.0156 20.5471 55.0318 20.5867C55.0481 20.6263 55.0721 20.6623 55.1024 20.6927C55.1328 20.723 55.1689 20.7471 55.2087 20.7636C55.2485 20.78 55.2912 20.7885 55.3343 20.7885H65.0657C65.1237 20.7885 65.1793 20.7656 65.2203 20.725C65.2613 20.6844 65.2844 20.6293 65.2844 20.5718V18.5987C65.2821 18.543 65.2579 18.4904 65.2171 18.4521C65.1763 18.4138 65.1219 18.3928 65.0657 18.3936Z" fill="white"/>
<path d="M21.3567 1.32027L15.8701 9.38892C15.7812 9.50538 15.74 9.65088 15.755 9.79615C15.77 9.94143 15.8399 10.0757 15.9507 10.172C16.0615 10.2682 16.205 10.3193 16.3523 10.315C16.4996 10.3107 16.6398 10.2513 16.7447 10.1487L22.1438 5.52649C22.175 5.4982 22.2138 5.47959 22.2555 5.47296C22.2972 5.46634 22.3399 5.47199 22.3784 5.48921C22.4169 5.50644 22.4495 5.53448 22.472 5.56987C22.4946 5.60525 22.5062 5.64642 22.5053 5.68826V20.2165C22.5049 20.2606 22.4909 20.3035 22.4652 20.3395C22.4395 20.3755 22.4033 20.4029 22.3614 20.4179C22.3196 20.433 22.2741 20.4351 22.2311 20.4239C22.188 20.4126 22.1494 20.3886 22.1205 20.3551L5.79469 0.999607C5.53406 0.688873 5.20799 0.43839 4.83935 0.265722C4.47071 0.0930534 4.06842 0.00237872 3.66067 5.42278e-05H3.09218C2.35069 5.42278e-05 1.63957 0.291939 1.11526 0.811497C0.590943 1.33105 0.296387 2.03573 0.296387 2.77049V23.2296C0.296387 23.9643 0.590943 24.669 1.11526 25.1886C1.63957 25.7081 2.35069 26 3.09218 26C3.56995 25.9999 4.03973 25.8786 4.4567 25.6474C4.87367 25.4163 5.22391 25.0832 5.47401 24.6798L10.9607 16.6111C11.0496 16.4947 11.0907 16.3492 11.0757 16.2039C11.0607 16.0586 10.9908 15.9244 10.88 15.8281C10.7692 15.7318 10.6257 15.6807 10.4784 15.685C10.3311 15.6893 10.1909 15.7488 10.0861 15.8514L4.68687 20.4736C4.65574 20.5019 4.61692 20.5205 4.57521 20.5271C4.53351 20.5337 4.49076 20.5281 4.45227 20.5108C4.41377 20.4936 4.38123 20.4656 4.35867 20.4302C4.33611 20.3948 4.32453 20.3536 4.32537 20.3118V5.79804C4.32581 5.75393 4.33982 5.71101 4.36554 5.675C4.39126 5.639 4.42745 5.61163 4.46928 5.59656C4.51112 5.58148 4.5566 5.57942 4.59965 5.59065C4.6427 5.60187 4.68126 5.62585 4.71019 5.65938L21.036 25.0149C21.2986 25.3228 21.6259 25.5703 21.995 25.7399C22.3641 25.9096 22.7661 25.9973 23.173 25.9971H23.756C24.1232 25.9971 24.4867 25.9255 24.8259 25.7862C25.1651 25.647 25.4733 25.4429 25.7329 25.1857C25.9926 24.9284 26.1985 24.623 26.339 24.2869C26.4795 23.9507 26.5518 23.5905 26.5518 23.2267V2.77049C26.5518 2.40521 26.4789 2.04353 26.3373 1.70627C26.1957 1.36901 25.9882 1.06283 25.7268 0.805343C25.4653 0.547856 25.155 0.34415 24.8138 0.205946C24.4726 0.067742 24.1071 -0.00223117 23.7385 5.42278e-05C23.2608 0.000111026 22.791 0.121492 22.374 0.352613C21.957 0.583734 21.6068 0.916884 21.3567 1.32027Z" fill="white"/>
</svg>
