<svg width="75" height="26" viewBox="0 0 75 26" fill="none" xmlns="http://www.w3.org/2000/svg">
<path d="M37.0329 14.2053C37.0329 15.4294 36.3575 16.3011 34.9347 16.3011C33.4265 16.3011 32.8018 15.4805 32.8018 14.2564V6.77711H29.7319V14.1515C29.7319 17.0706 31.4644 18.7817 34.932 18.7817C38.381 18.7817 40.0975 17.0356 40.0975 14.1515V6.7798H37.0276V14.2053H37.0329Z" fill="white"/>
<path d="M47.0561 9.34914C45.8255 9.34914 44.9766 9.87376 44.3173 10.8342H44.2639V9.6101H41.541V18.5557H44.368V13.6134C44.368 12.513 44.9926 11.7274 45.9269 11.7274C46.8452 11.7274 47.3151 12.3731 47.3151 13.3175V18.5584H50.142V12.739C50.142 10.7481 48.9968 9.34914 47.0561 9.34914Z" fill="white"/>
<path d="M54.4217 6.06416H51.5947V8.37251H54.4217V6.06416Z" fill="white"/>
<path d="M54.4217 9.61009H51.5947V18.5557H54.4217V9.61009Z" fill="white"/>
<path d="M59.3999 6.77981H56.6423V9.61011H55.4624V11.9185H56.6423V16.1989C56.6423 18.1198 57.8222 18.6633 59.4693 18.6633C60.2327 18.6633 60.7693 18.5933 61.0122 18.5234V16.4437C60.9081 16.4437 60.6305 16.4625 60.3876 16.4625C59.7816 16.4625 59.3999 16.2877 59.3999 15.5882V11.9185H61.0122V9.61011H59.3999V6.77981Z" fill="white"/>
<path d="M67.0289 13.4197C66.7513 14.2941 66.5084 15.4805 66.5084 15.4805H66.4737C66.4737 15.4805 66.1961 14.2914 65.9184 13.4197L64.7225 9.61009H61.7407L64.3595 16.4948C64.7225 17.4391 64.896 17.9638 64.896 18.3458C64.896 18.9565 64.5677 19.2901 63.7348 19.2901H62.7631V21.5097H64.5997C66.3856 21.5097 67.2345 20.7752 67.9445 18.6794L71.0144 9.61009H68.1875L67.0289 13.4197Z" fill="white"/>
<path d="M13.309 4.6517L17.3932 7.02732C17.5401 7.11072 17.5454 7.3421 17.3932 7.4255L12.5402 10.2504C12.3933 10.3365 12.2198 10.3311 12.0837 10.2504L7.2306 7.4255C7.08111 7.34479 7.07844 7.10803 7.2306 7.02732L11.3122 4.6517V0L0.890625 6.06416V18.1925V18.136V18.1925L4.88681 15.868V11.1167C4.88414 10.9472 5.08168 10.8262 5.2285 10.9176L10.0816 13.7425C10.2284 13.8286 10.3112 13.982 10.3112 14.1407V19.7879C10.3138 19.9574 10.1163 20.0784 9.96946 19.987L5.88519 17.6113L1.889 19.9358L12.3106 26L22.7322 19.9358L18.736 17.6113L14.6517 19.987C14.5075 20.0757 14.3047 19.9601 14.31 19.7879V14.1407C14.31 13.9712 14.4034 13.8206 14.5396 13.7425L19.3927 10.9176C19.5368 10.8288 19.7397 10.9418 19.7343 11.1167V15.868L23.7305 18.1925V6.06416L13.309 0V4.6517Z" fill="white"/>
<path d="M74.9119 10.3069C74.8532 10.1697 74.7731 10.0486 74.669 9.9437C74.5649 9.83878 74.4448 9.75806 74.3086 9.69888C74.1725 9.63969 74.0257 9.61009 73.8682 9.61009C73.7107 9.61009 73.5639 9.63969 73.4277 9.69888C73.2916 9.75806 73.1714 9.83878 73.0673 9.9437C72.9632 10.0486 72.8831 10.1697 72.8244 10.3069C72.7657 10.4441 72.7363 10.5921 72.7363 10.7508C72.7363 10.9096 72.7657 11.0575 72.8244 11.1947C72.8831 11.3319 72.9632 11.453 73.0673 11.5579C73.1714 11.6629 73.2916 11.7436 73.4277 11.8028C73.5639 11.862 73.7107 11.8916 73.8682 11.8916C74.0257 11.8916 74.1725 11.862 74.3086 11.8028C74.4448 11.7436 74.5649 11.6629 74.669 11.5579C74.7731 11.453 74.8532 11.3319 74.9119 11.1947C74.9707 11.0575 75 10.9096 75 10.7508C75 10.5921 74.9707 10.4441 74.9119 10.3069ZM74.613 11.1867C74.5355 11.3185 74.4314 11.4234 74.3006 11.5014C74.1698 11.5795 74.0257 11.6171 73.8682 11.6171C73.7107 11.6171 73.5665 11.5795 73.4357 11.5014C73.3049 11.4234 73.2008 11.3185 73.1234 11.1867C73.046 11.0548 73.0086 10.9096 73.0086 10.7508C73.0086 10.5921 73.046 10.4468 73.1234 10.315C73.2008 10.1831 73.3049 10.0782 73.4357 10.0002C73.5665 9.92218 73.7107 9.88451 73.8682 9.88451C74.0257 9.88451 74.1698 9.92218 74.3006 10.0002C74.4314 10.0782 74.5355 10.1831 74.613 10.315C74.6904 10.4468 74.7277 10.5921 74.7277 10.7508C74.7277 10.9096 74.6904 11.0548 74.613 11.1867Z" fill="white"/>
<path d="M74.2665 10.7428C74.3038 10.6889 74.3225 10.6244 74.3225 10.5464C74.3225 10.471 74.3038 10.4065 74.2691 10.358C74.2344 10.3069 74.1917 10.2719 74.141 10.2477C74.0903 10.2235 74.0449 10.2127 74.0022 10.2127H73.4736V11.2647H73.7032V10.9069H73.9301L74.1143 11.2647H74.3652L74.149 10.8558C74.1944 10.8262 74.2344 10.7912 74.2665 10.7428ZM74.0155 10.6889C73.9782 10.7212 73.9461 10.7347 73.9141 10.7347H73.7005V10.3822H73.9194C73.9461 10.3822 73.9782 10.393 74.0155 10.4172C74.0529 10.4414 74.0689 10.4845 74.0689 10.549C74.0689 10.6109 74.0529 10.6567 74.0155 10.6889Z" fill="white"/>
</svg>
