<svg width="2297" height="1000" viewBox="0 0 2297 1000" fill="none" xmlns="http://www.w3.org/2000/svg">
<g clip-path="url(#clip0_0_1)">
<path d="M1832.02 534.966L1774.13 535.107V768.571V1002.08L1941.83 1002.36C2102.95 1002.64 2219.2 1002.32 2220.39 1001.57C2220.81 1001.33 2220.95 990.603 2220.95 955.089V908.987H2096.8C2028.5 908.987 1954.05 908.846 1931.37 908.659L1890.1 908.378V861.807V815.283L1899.94 815.236C1905.34 815.189 1978.66 815.002 2062.86 814.861L2215.98 814.58L2216.13 768.29L2216.22 722.047H2107.21C2047.24 722.047 1973.88 721.906 1944.15 721.719L1890.1 721.438V674.961V628.483L2000.95 628.202C2061.92 628.015 2136.32 627.874 2166.38 627.874H2220.95V581.772V535.669L2219.44 535.341C2217.83 535.013 1932.23 534.732 1832.02 534.966Z" fill="white"/>
<path d="M593.081 732.074C593.081 864.467 593.223 929.263 593.602 934.305C594.931 954.332 598.916 965.583 608.738 977.16C619.745 990.138 631.844 997.374 647.217 1000.31C659.078 1002.56 651.534 1002.46 863.523 1002.46C1053.64 1002.46 1063.27 1002.42 1068.49 1001.62C1082.58 999.428 1096.72 992.332 1106.97 982.202C1119.21 970.204 1124.67 956.339 1126.37 933.138C1126.66 928.703 1126.85 859.846 1126.85 731.794V537.266H1068.73H1010.61L1010.46 712.187C1010.37 879.733 1010.32 887.295 1009.47 890.423C1006.38 902.14 999.931 907.696 987.12 909.61C983.799 910.077 753.353 909.843 739.689 909.33C730.437 908.956 728.065 908.723 725.74 907.929C717.959 905.315 713.309 899.993 710.605 890.75L709.561 887.155V774.182C709.608 712.047 709.75 633.339 709.94 599.214L710.32 537.266H651.676H593.081V732.074Z" fill="white"/>
<path d="M1189.81 537.826C1189.66 538.153 1189.62 642.816 1189.66 770.448L1189.81 1002.46H1426.06C1650.05 1002.46 1662.55 1002.42 1666.69 1001.62C1684.51 998.261 1701.34 987.291 1711.27 972.586C1717.79 962.922 1721.49 952.512 1722.87 940.048C1723.59 933.979 1723.59 834.357 1722.92 825.721C1720.5 794.77 1709.66 775.536 1691.83 770.448C1690.31 770.028 1689.27 769.514 1689.5 769.281C1690.03 768.814 1693.73 766.947 1699.77 764.146C1703.95 762.232 1705.52 761.205 1708.14 758.637C1714.79 752.148 1719.55 740.944 1721.68 726.566C1723.25 716.202 1723.44 706.165 1723.3 651.639L1723.16 597.72L1722.06 592.725C1718.98 578.3 1712.89 567.049 1702.96 557.339C1691.36 545.949 1676.86 539.366 1659.46 537.732C1656.47 537.452 1568.1 537.266 1422.35 537.266C1236.91 537.266 1189.95 537.406 1189.81 537.826ZM1567.95 630.352C1583.5 630.492 1585.11 630.585 1588.63 631.519C1595.62 633.386 1600.61 637.448 1603.89 643.937C1606.89 649.959 1607.08 651.499 1607.03 677.082C1607.03 696.128 1606.89 700.517 1606.27 703.411C1605.08 708.873 1603.13 712.421 1599.18 716.249C1595.62 719.797 1593.39 721.104 1588.63 722.458C1585.97 723.205 1577.46 723.251 1455.77 723.485C1384.28 723.671 1321.43 723.671 1316.11 723.531L1306.51 723.298V676.848V630.398L1314.92 630.165C1323.95 629.932 1539.53 630.072 1567.95 630.352ZM1586.02 815.264C1596.43 816.944 1604.03 824.227 1606.27 834.637C1606.89 837.485 1607.03 842.013 1607.12 858.445C1607.22 869.603 1607.08 880.947 1606.84 883.608C1605.93 894.298 1601.32 901.814 1593.34 905.735C1587.87 908.443 1596.14 908.303 1445.45 908.49C1369.35 908.536 1306.93 908.49 1306.79 908.35C1306.65 908.21 1306.51 887.109 1306.51 861.433V814.797L1312.31 814.563C1315.54 814.423 1377.53 814.377 1450.06 814.47C1559.87 814.61 1582.64 814.75 1586.02 815.264Z" fill="white"/>
<path d="M69.8576 537.489C60.7684 537.815 56.5078 538.329 50.7797 539.775C39.6075 542.576 31.0391 547.476 21.3344 556.623C7.22722 569.924 1.73582 582.105 -0.489146 605.067C-1.1519 612.067 -1.19924 615.941 -0.867863 632.369C-0.299787 657.244 -0.299787 882.894 -0.867863 909.589C-1.19924 927.511 -1.1519 931.011 -0.489146 937.125C1.78316 957.006 7.17988 969.374 18.9675 981.601C30.187 993.222 41.8325 999.009 59.4429 1001.62C64.5555 1002.42 76.7692 1002.46 266.791 1002.46H468.694L474.233 1001.44C497.429 997.002 515.087 984.402 524.792 965.36C528.958 957.193 529.999 951.079 531.514 926.391C532.177 915.376 532.366 846.27 531.751 841.836L531.372 839.176H473.712H416.1V863.013C416.147 879.627 416.147 879.767 414.869 885.041C413.117 892.181 410.514 897.362 406.727 901.095C403.271 904.549 400.194 906.276 395.223 907.489C391.673 908.423 389.258 908.469 325.018 908.889C166.715 909.916 144.134 909.963 139.447 909.356C128.701 908.003 122.121 904.129 118.617 897.082C116.771 893.302 116.392 891.155 115.777 880.747C115.351 872.953 114.972 773.639 115.114 693.04C115.209 648.283 115.777 644.13 122.973 637.409C126.05 634.609 129.032 633.022 134.098 631.576L137.79 630.502H266.791H395.791L399.626 631.762C407.91 634.562 412.786 640.069 415.106 649.404C416.668 655.517 416.952 666.216 416.573 682.924L416.242 699.165H473.996H531.751L532.082 696.692C532.697 691.558 532.934 639.183 532.413 624.388C531.277 592.606 530.094 585.465 523.987 573.705C514.472 555.27 497.003 543.042 474.091 538.702L468.694 537.675L386.56 537.535C198.906 537.209 77.6213 537.162 69.8576 537.489Z" fill="white"/>
<path d="M1812.32 -1.6738L1772.62 -1.53357L1772.72 231.341L1772.86 464.169L1774.28 464.309C1778.17 464.589 2284.61 464.449 2291.05 464.122L2298.5 463.795V418.033C2298.5 392.839 2298.36 372.131 2298.22 371.991C2298.07 371.851 2297.74 371.664 2297.5 371.664C2297.27 371.617 2144.22 371.57 2053.6 371.524L1888.81 371.477V324.734V277.991H2030.51C2108.47 277.991 2260.89 277.85 2273.03 277.663L2297.22 277.383V231.481V185.579L2283.7 185.299C2277.4 185.112 2128.57 184.972 2049.09 184.972C1969.62 184.972 1901.04 184.831 1896.73 184.645L1888.81 184.364V137.901V91.4854H2054.31L2298.5 91.4853V45.2563V-0.972687L2296.75 -1.2999C2294.94 -1.6271 1885.63 -1.90751 1812.32 -1.6738Z" fill="white"/>
<path d="M1812.69 535.086L1773 535.226L1773.09 768.101L1773.24 1000.93L1774.66 1001.07C1778.55 1001.35 2284.98 1001.21 2291.43 1000.88L2298.88 1000.55V954.793C2298.88 929.599 2298.74 908.891 2298.59 908.751C2298.45 908.611 2298.12 908.424 2297.88 908.424C2297.64 908.377 2144.6 908.33 2053.98 908.284L1889.18 908.237V861.494V814.751H2030.88C2108.85 814.751 2261.27 814.61 2273.41 814.423L2297.6 814.143V768.241V722.339L2284.08 722.059C2277.77 721.872 2128.95 721.732 2049.47 721.732C1969.99 721.732 1901.42 721.591 1897.1 721.405L1889.18 721.124V674.661V628.245H2054.69L2298.88 628.245V582.016V535.787L2297.12 535.46C2295.32 535.133 1886.01 534.852 1812.69 535.086Z" fill="white"/>
<path d="M0.0685996 232.276L0.210867 465.197L58.2084 465.338L116.159 465.431V404.244V322.798L127.35 322.471C133.515 322.284 184.874 322.377 241.543 322.658C409.371 323.499 469.74 323.219 478.228 321.536C491.175 318.918 501.56 313.496 510.713 304.475C519.913 295.406 525.84 284.515 528.828 271.193L529.919 266.379V170.949V55.2597L528.828 50.4919C525.84 37.0766 520.434 27.1204 511.234 18.0522C502.129 9.03074 492.455 3.98245 478.133 0.710426L473.486 -0.364645L236.706 -0.458129L-0.0262451 -0.598384L0.0685996 232.276ZM392.489 92.9347C398.606 93.4957 401.214 94.2903 404.771 96.534C410.082 99.8995 413.307 104.434 415.251 111.118C416.058 114.016 416.105 117.241 416.105 172.118V209.82L414.967 213.699C412.501 222.3 406.715 227.909 397.61 230.433C395.002 231.181 388.268 231.275 320.312 231.649C236.659 232.116 117.249 231.882 116.585 231.228C116.348 230.994 116.206 198.134 116.253 171.837L116.396 92.6543L126.117 92.4205C143.426 91.9531 387.32 92.4206 392.489 92.9347Z" fill="white"/>
<path d="M593.843 201.659C593.986 390.735 594.033 404.244 594.792 407.937C598.064 423.97 604.751 436.357 615.563 446.5C627.087 457.298 641.408 463.468 658.29 464.964C665.688 465.618 1055.22 465.618 1062.66 464.964C1085 463 1103.59 452.436 1115.49 434.861C1120.23 427.943 1123.79 419.155 1125.87 409.479L1126.97 404.431L1127.11 201.893L1127.2 -0.598536H1069.11H1011.02L1010.88 175.249C1010.78 343.805 1010.73 351.284 1009.88 353.948C1007.18 362.876 1001.01 368.813 992.049 371.337C989.109 372.132 983.655 372.178 860.215 372.178H731.463L727.574 370.87C718.754 367.925 713.537 362.362 710.977 353.154C710.17 350.396 710.123 339.552 710.028 174.782L709.886 -0.598536H651.794H593.701L593.843 201.659Z" fill="white"/>
<path d="M1190.75 232.651V465.432H1249.36H1307.98L1307.69 446.828C1307.55 436.638 1307.27 409.48 1307.12 386.529L1306.84 322.802H1420.37H1519.9L1523.27 328.504C1528.39 337.198 1573.78 412.939 1590.33 441.219L1604.98 466.32L1663.22 466.366C1695.23 466.366 1721.41 466.273 1721.41 466.179C1721.41 466.039 1718.89 461.692 1715.81 456.457C1712.68 451.222 1707.08 441.686 1703.29 435.282C1691.25 414.855 1668.72 376.526 1666.16 372.179C1664.78 369.842 1646.66 340.798 1642.97 334.534C1639.27 328.27 1636.33 323.035 1636.42 322.942C1636.52 322.848 1654.21 322.568 1658.62 322.334C1667.58 321.82 1672.7 320.979 1677.63 319.343C1693.71 313.967 1707.13 302.421 1714.77 287.37C1717.23 282.415 1719.7 275.217 1720.79 269.514C1721.6 265.307 1721.64 281.123 1721.64 172.118C1721.64 63.113 1721.6 56.8962 1720.79 52.6893C1718.18 39.274 1712.06 27.5882 1702.91 18.5667C1694.04 9.77902 1683.8 4.35682 1670.05 1.13154L1665.68 0.10318L1428.24 0.00969552L1190.75 -0.130531V232.651ZM1584.92 93.5896C1595.69 95.3658 1602.33 100.414 1605.32 109.155L1606.41 112.287L1606.55 171.417C1606.64 224.704 1606.6 208.842 1605.88 212.02C1603.42 223.145 1595.64 229.783 1583.26 231.232C1580.8 231.512 1530.15 231.559 1443.18 231.372L1306.93 231.045V173.006V92.9351L1313.72 92.7482C1317.41 92.7014 1379.02 92.7014 1450.62 92.7482C1561.26 92.8884 1581.41 93.0286 1584.92 93.5896Z" fill="white"/>
</g>
<defs>
<clipPath id="clip0_0_1">
<rect width="2297" height="1000" fill="white"/>
</clipPath>
</defs>
</svg>
