<svg width="43" height="44" viewBox="0 0 43 44" fill="none" xmlns="http://www.w3.org/2000/svg">
<path d="M0 22C0 10.1259 9.62588 0.5 21.5 0.5C33.3741 0.5 43 10.1259 43 22C43 33.8741 33.3741 43.5 21.5 43.5C9.62588 43.5 0 33.8741 0 22Z" fill="white"/>
<path d="M14.8846 11.1154C14.8846 8.90625 16.6755 7.11539 18.8846 7.11539H24.1154C26.3246 7.11539 28.1154 8.90625 28.1154 11.1154V16.3462C28.1154 18.5553 26.3246 20.3462 24.1154 20.3462H18.8846C16.6755 20.3462 14.8846 18.5553 14.8846 16.3462V11.1154Z" fill="black"/>
<path fill-rule="evenodd" clip-rule="evenodd" d="M33.3049 27.5448C35.0413 28.8316 35.354 31.2897 33.9272 32.9131C30.8962 36.3618 26.4524 38.5385 21.5001 38.5385C16.5479 38.5385 12.104 36.3618 9.07302 32.9131C7.64629 31.2897 7.95899 28.8316 9.69538 27.5448C12.9945 25.0999 17.0784 23.6538 21.5001 23.6538C25.9218 23.6538 30.0057 25.0999 33.3049 27.5448Z" fill="black"/>
</svg>
